<svg width="341" height="51" viewBox="0 0 341 51" fill="none" xmlns="http://www.w3.org/2000/svg">
<path d="M10.905 29.765L17.9929 15.9359C18.1357 15.6482 18.3281 15.3918 18.5702 15.1541C18.8184 14.9227 19.135 14.8038 19.5384 14.8038H20.8728C21.1273 14.8038 21.3507 14.8977 21.5369 15.0915C21.7231 15.2792 21.8162 15.5044 21.8162 15.7608V38.609C21.8162 38.8717 21.7231 39.0906 21.5369 39.2845C21.3507 39.4722 21.1273 39.566 20.8728 39.566H19.4329C19.1722 39.566 18.955 39.4722 18.7688 39.2845C18.5826 39.0969 18.4895 38.8717 18.4895 38.609V21.8466L13.0152 32.492C12.829 32.8422 12.6304 33.1237 12.4194 33.3239C12.2084 33.524 11.9291 33.6241 11.5753 33.6241H10.2409C9.89333 33.6241 9.60782 33.524 9.3968 33.3239C9.18577 33.1237 8.98716 32.8485 8.80096 32.492L3.32674 21.8466V38.609C3.32674 38.8717 3.23364 39.0906 3.04744 39.2845C2.86124 39.4722 2.63781 39.566 2.38334 39.566H0.943404C0.682726 39.566 0.465495 39.4722 0.279297 39.2845C0.0930991 39.0969 0 38.8717 0 38.609V15.7608C0 15.5044 0.0930991 15.2792 0.279297 15.0915C0.465495 14.9039 0.688933 14.8038 0.943404 14.8038H2.27782C2.67505 14.8038 2.99779 14.9227 3.23985 15.1541C3.48811 15.3918 3.68052 15.6482 3.81706 15.9359L10.905 29.765Z" fill="white"/>
<path d="M26.4523 28.6017C26.5454 27.5197 26.7999 26.5064 27.2219 25.5619C27.644 24.6175 28.1963 23.7919 28.8729 23.0851C29.5494 22.3783 30.3625 21.8217 31.3121 21.4214C32.2617 21.0211 33.3168 20.8209 34.4898 20.8209C35.756 20.8209 36.8794 21.0273 37.8786 21.4401C38.8717 21.8529 39.722 22.4471 40.4234 23.229C41.1247 24.0045 41.6647 24.949 42.0371 26.0623C42.4095 27.1694 42.6019 28.4078 42.6019 29.7713V30.7283C42.6019 30.991 42.5088 31.2099 42.3226 31.4038C42.1364 31.5914 41.9129 31.6852 41.6585 31.6852H29.5866V31.8979C29.6363 33.5054 30.1204 34.7313 31.0452 35.5944C31.97 36.4575 33.1182 36.8829 34.5023 36.8829C35.787 36.8829 36.7553 36.7015 37.4007 36.3325C38.0462 35.9697 38.5614 35.5631 38.9648 35.1128C39.151 34.9252 39.3124 34.7938 39.4551 34.725C39.5979 34.6562 39.8089 34.6187 40.0882 34.6187H41.1433C41.3978 34.6187 41.6336 34.7125 41.8447 34.9064C42.0557 35.094 42.1364 35.3192 42.0929 35.5756C42.0247 36.001 41.826 36.4638 41.4971 36.9704C41.1681 37.4771 40.6964 37.9524 40.0758 38.384C39.4551 38.8218 38.6855 39.1846 37.7607 39.4785C36.8359 39.7725 35.756 39.9226 34.5147 39.9226C33.3416 39.9226 32.2927 39.7162 31.3555 39.3034C30.4183 38.8906 29.6052 38.3214 28.9163 37.6021C28.2274 36.8829 27.6688 36.0385 27.2467 35.0565C26.8247 34.0808 26.5702 33.0112 26.4771 31.8604C26.3592 30.7721 26.3592 29.69 26.4771 28.608L26.4523 28.6017ZM29.5742 28.708H39.4365V28.6017C39.4365 27.1631 38.9834 26.0123 38.0835 25.1554C37.1835 24.2923 35.9856 23.8669 34.4898 23.8669C33.8133 23.8669 33.1802 23.9795 32.5968 24.2047C32.0134 24.4299 31.4983 24.7488 31.0514 25.1616C30.6045 25.5745 30.2569 26.0748 29.9963 26.6628C29.7356 27.2507 29.599 27.9012 29.5742 28.608V28.7143V28.708Z" fill="white"/>
<path d="M55.9337 21.1772C56.1944 21.1772 56.4116 21.2711 56.5978 21.4587C56.784 21.6463 56.8771 21.8715 56.8771 22.1342V23.2663C56.8771 23.529 56.784 23.7479 56.5978 23.9418C56.4116 24.1294 56.1882 24.2233 55.9337 24.2233H53.898C51.2043 24.2233 49.8637 25.5805 49.8637 28.2888V38.6152C49.8637 38.8779 49.7706 39.0968 49.5844 39.2907C49.3982 39.4783 49.1747 39.5722 48.9203 39.5722H47.6231C47.3624 39.5722 47.1452 39.4783 46.959 39.2907C46.7728 39.1031 46.6797 38.8779 46.6797 38.6152V22.1342C46.6797 21.8715 46.7728 21.6526 46.959 21.4587C47.1452 21.2711 47.3686 21.1772 47.6231 21.1772H48.9203C49.1747 21.1772 49.3982 21.2711 49.5844 21.4587C49.7706 21.6463 49.8637 21.8715 49.8637 22.1342V23.2288C50.3292 22.522 50.894 22.0029 51.5519 21.6714C52.2036 21.3399 53.0601 21.1772 54.1152 21.1772H55.9399H55.9337Z" fill="white"/>
<path d="M61.7241 31.6037C61.8172 32.5482 62.022 33.3488 62.3385 34.0118C62.6551 34.6685 63.0399 35.2127 63.4992 35.638C63.9585 36.0633 64.4674 36.376 65.026 36.5762C65.5846 36.7763 66.1618 36.8764 66.7452 36.8764C67.8686 36.8764 68.8306 36.6637 69.6251 36.2384C70.4195 35.8131 71.0402 35.1063 71.4871 34.1118C71.6484 33.7366 71.8222 33.4801 71.996 33.355C72.1698 33.2299 72.387 33.1611 72.6477 33.1611H73.7028C73.9635 33.1611 74.1869 33.255 74.3856 33.4426C74.5842 33.6302 74.6711 33.8554 74.6462 34.1118C74.6214 34.681 74.4414 35.3002 74.1001 35.9695C73.7587 36.645 73.256 37.2642 72.5918 37.8459C71.9277 38.4275 71.1085 38.9154 70.134 39.3157C69.1596 39.716 68.0362 39.9162 66.7452 39.9162C65.4543 39.9162 64.3184 39.7035 63.3254 39.2782C62.3323 38.8529 61.4882 38.2774 60.7993 37.5456C60.1104 36.8138 59.5704 35.9507 59.1856 34.9625C58.8008 33.9742 58.5835 32.9109 58.5339 31.7789C58.5091 31.4036 58.4904 30.9345 58.478 30.3841C58.4656 29.8274 58.478 29.352 58.5339 28.9518C58.627 27.8197 58.869 26.7564 59.2539 25.7681C59.6387 24.7799 60.1724 23.9168 60.849 23.185C61.5255 22.4532 62.3572 21.8777 63.344 21.4524C64.3247 21.0271 65.4605 20.8145 66.7452 20.8145C68.03 20.8145 69.1596 21.0146 70.134 21.4149C71.1023 21.8152 71.9215 22.3031 72.5918 22.8847C73.256 23.4664 73.7649 24.0856 74.1001 24.7611C74.4414 25.4304 74.6214 26.0496 74.6462 26.6125C74.6711 26.8752 74.5842 27.0941 74.3856 27.288C74.1869 27.4819 73.9573 27.5695 73.7028 27.5695H72.6477C72.387 27.5695 72.176 27.5069 71.996 27.3756C71.8222 27.2442 71.6484 26.994 71.4871 26.6125C71.0402 25.6243 70.4257 24.9175 69.6251 24.4922C68.8306 24.0669 67.8686 23.8542 66.7452 23.8542C66.1618 23.8542 65.5784 23.9543 65.0074 24.1544C64.4364 24.3546 63.9212 24.6673 63.4619 25.0926C63.0026 25.518 62.6178 26.0621 62.3075 26.7188C61.991 27.3818 61.7986 28.1824 61.7303 29.1269C61.662 29.9963 61.662 30.8219 61.7303 31.6037H61.7241Z" fill="white"/>
<path d="M77.377 34.9314C77.377 33.987 77.5632 33.1613 77.9355 32.4546C78.3079 31.7478 78.8231 31.1473 79.481 30.6532C80.1389 30.1591 80.9023 29.7588 81.7774 29.4523C82.6526 29.1459 83.5836 28.9082 84.5642 28.7456L89.5109 27.9325V27.4696C89.5109 26.2687 89.1198 25.3681 88.3378 24.7676C87.5558 24.1672 86.5751 23.8669 85.4083 23.8669C84.378 23.8669 83.6022 24.0546 83.0746 24.4299C82.5471 24.8114 82.1002 25.2555 81.7216 25.7746C81.5788 25.9622 81.4299 26.0936 81.2623 26.1624C81.1009 26.2312 80.8775 26.2687 80.5982 26.2687H79.5431C79.2824 26.2687 79.0589 26.1749 78.8603 25.9873C78.6617 25.7996 78.5748 25.5745 78.5997 25.3118C78.6493 24.7926 78.8541 24.2672 79.2141 23.7231C79.5803 23.1789 80.0706 22.6973 80.6913 22.272C81.3119 21.8467 82.0257 21.5027 82.8326 21.2275C83.6394 20.9523 84.4959 20.8209 85.4145 20.8209C86.4696 20.8209 87.4441 20.971 88.344 21.2838C89.244 21.5902 90.0136 22.0343 90.6591 22.6285C91.3046 23.2165 91.8073 23.9482 92.1673 24.8239C92.5273 25.6996 92.7135 26.694 92.7135 27.8324V38.6154C92.7135 38.8781 92.6204 39.097 92.4342 39.2909C92.248 39.4785 92.0245 39.5724 91.7701 39.5724H90.4729C90.2122 39.5724 89.995 39.4785 89.8088 39.2909C89.6226 39.1033 89.5295 38.8781 89.5295 38.6154V37.1643C89.3185 37.6147 88.9895 38.0087 88.5488 38.3527C88.102 38.6967 87.593 38.9844 87.022 39.2221C86.4448 39.4535 85.849 39.6349 85.2345 39.7537C84.6139 39.8726 84.0366 39.9289 83.4967 39.9289C82.5843 39.9289 81.7464 39.7975 80.9892 39.5411C80.232 39.2846 79.5865 38.9344 79.0589 38.4966C78.5314 38.065 78.1217 37.5396 77.83 36.9266C77.5383 36.3137 77.3894 35.6507 77.3894 34.9502L77.377 34.9314ZM83.8318 36.8766C84.6759 36.8766 85.4455 36.7515 86.1469 36.4888C86.8482 36.2324 87.4503 35.8696 87.953 35.4068C88.4557 34.9439 88.8405 34.3998 89.1136 33.7618C89.3805 33.1238 89.5171 32.417 89.5171 31.6415V30.7596L85.3773 31.4288C83.9063 31.6665 82.7333 32.0418 81.8705 32.5609C81.0078 33.08 80.5734 33.7493 80.5734 34.5749C80.5734 34.8376 80.6292 35.094 80.7471 35.3567C80.8651 35.6132 81.0513 35.8634 81.3119 36.101C81.5726 36.3325 81.9016 36.5263 82.3112 36.6702C82.7208 36.8078 83.2298 36.8829 83.838 36.8829L83.8318 36.8766Z" fill="white"/>
<path d="M113.872 38.6091C113.872 38.8718 113.779 39.0908 113.592 39.2846C113.406 39.4723 113.183 39.5661 112.928 39.5661H111.631C111.37 39.5661 111.153 39.4723 110.967 39.2846C110.781 39.097 110.688 38.8718 110.688 38.6091V29.271C110.688 27.4571 110.253 26.0998 109.391 25.2054C108.528 24.311 107.324 23.8607 105.778 23.8607C104.233 23.8607 103.116 24.311 102.216 25.2054C101.316 26.0998 100.863 27.4571 100.863 29.271V38.6091C100.863 38.8718 100.77 39.0908 100.583 39.2846C100.397 39.4723 100.174 39.5661 99.9193 39.5661H98.6221C98.3614 39.5661 98.1442 39.4723 97.958 39.2846C97.7718 39.097 97.6787 38.8718 97.6787 38.6091V22.1281C97.6787 21.8654 97.7718 21.6465 97.958 21.4526C98.1442 21.265 98.3676 21.1712 98.6221 21.1712H99.9193C100.174 21.1712 100.397 21.265 100.583 21.4526C100.77 21.6403 100.863 21.8654 100.863 22.1281V23.2227C101.31 22.6348 101.967 22.0844 102.843 21.5777C103.718 21.0711 104.872 20.8209 106.3 20.8209C107.398 20.8209 108.416 21.0023 109.353 21.3651C110.291 21.7341 111.091 22.247 111.755 22.9225C112.419 23.5917 112.941 24.4236 113.319 25.4118C113.692 26.4001 113.884 27.5134 113.884 28.7393V38.6029L113.872 38.6091Z" fill="white"/>
<path d="M123.275 33.3738C123.275 33.8241 123.319 34.2432 123.4 34.631C123.48 35.0188 123.629 35.3565 123.84 35.638C124.051 35.9194 124.349 36.1384 124.734 36.2885C125.119 36.4448 125.615 36.5199 126.23 36.5199H128.092C128.352 36.5199 128.57 36.6137 128.756 36.8014C128.942 36.989 129.035 37.2142 129.035 37.4769V38.6089C129.035 38.8716 128.942 39.0906 128.756 39.2845C128.57 39.4721 128.346 39.5659 128.092 39.5659H125.882C123.846 39.5659 122.376 39.0343 121.457 37.9772C120.545 36.9139 120.091 35.3815 120.091 33.3801V24.2233H117.497C117.236 24.2233 117.019 24.1294 116.833 23.9418C116.647 23.7542 116.554 23.529 116.554 23.2663V22.1342C116.554 21.8715 116.647 21.6526 116.833 21.4587C117.019 21.2711 117.243 21.1772 117.497 21.1772H120.091V15.4105C120.091 15.154 120.185 14.9288 120.371 14.735C120.557 14.5473 120.78 14.4535 121.035 14.4535H122.332C122.593 14.4535 122.81 14.5473 122.996 14.735C123.182 14.9226 123.275 15.1478 123.275 15.4105V21.1772H127.732C127.986 21.1772 128.21 21.2711 128.396 21.4587C128.582 21.6463 128.675 21.8715 128.675 22.1342V23.2663C128.675 23.529 128.582 23.7479 128.396 23.9418C128.21 24.1294 127.986 24.2233 127.732 24.2233H123.275V33.3801V33.3738Z" fill="white"/>
<path d="M135.913 17.4244C135.913 17.6871 135.82 17.9061 135.633 18.1C135.447 18.2876 135.224 18.3814 134.969 18.3814H132.971C132.71 18.3814 132.493 18.2876 132.307 18.1C132.12 17.9123 132.027 17.6871 132.027 17.4244V15.4105C132.027 15.154 132.12 14.9288 132.307 14.735C132.493 14.5473 132.716 14.4535 132.971 14.4535H134.969C135.23 14.4535 135.447 14.5473 135.633 14.735C135.82 14.9226 135.913 15.1478 135.913 15.4105V17.4244ZM135.559 38.6089C135.559 38.8716 135.466 39.0906 135.28 39.2845C135.093 39.4721 134.87 39.5659 134.615 39.5659H133.318C133.058 39.5659 132.84 39.4721 132.654 39.2845C132.468 39.0968 132.375 38.8716 132.375 38.6089V22.1279C132.375 21.8653 132.468 21.6463 132.654 21.4524C132.84 21.2648 133.064 21.171 133.318 21.171H134.615C134.87 21.171 135.093 21.2648 135.28 21.4524C135.466 21.6401 135.559 21.8653 135.559 22.1279V38.6089Z" fill="white"/>
<path d="M143.844 38.6089C143.844 38.8716 143.751 39.0906 143.565 39.2845C143.379 39.4721 143.155 39.5659 142.901 39.5659H141.604C141.343 39.5659 141.126 39.4721 140.939 39.2845C140.753 39.0968 140.66 38.8716 140.66 38.6089V15.4105C140.66 15.154 140.753 14.9288 140.939 14.735C141.126 14.5473 141.349 14.4535 141.604 14.4535H142.901C143.155 14.4535 143.379 14.5473 143.565 14.735C143.751 14.9226 143.844 15.1478 143.844 15.4105V38.6089Z" fill="white"/>
<path d="M167.766 14.7842C168.138 14.7842 168.417 14.8843 168.61 15.0844C168.796 15.2845 168.957 15.5848 169.1 15.9851L177.696 38.3329C177.721 38.4017 177.734 38.4893 177.734 38.5769C177.734 38.8396 177.64 39.0585 177.454 39.2524C177.268 39.44 177.045 39.5338 176.79 39.5338H174.264C173.799 39.5338 173.47 39.4338 173.283 39.2336C173.097 39.0335 172.967 38.8396 172.899 38.6519L171.39 34.724H160.299L158.791 38.6519C158.723 38.8396 158.592 39.0335 158.406 39.2336C158.22 39.4338 157.891 39.5338 157.426 39.5338H154.899C154.639 39.5338 154.422 39.44 154.235 39.2524C154.049 39.0647 153.956 38.8396 153.956 38.5769C153.956 38.483 153.968 38.4017 153.993 38.3329L162.589 15.9851C162.732 15.5848 162.894 15.2845 163.08 15.0844C163.266 14.8843 163.545 14.7842 163.924 14.7842H167.784H167.766ZM169.696 30.3082L165.835 20.232L161.975 30.3082H169.696Z" fill="white"/>
<path d="M197.558 38.5895C197.558 38.8522 197.464 39.0711 197.278 39.265C197.092 39.4526 196.869 39.5465 196.614 39.5465H193.945C193.685 39.5465 193.467 39.4526 193.281 39.265C193.095 39.0774 193.002 38.8522 193.002 38.5895V29.6078C193.002 28.1943 192.673 27.0622 192.021 26.2115C191.363 25.3609 190.358 24.9356 189.005 24.9356C187.764 24.9356 186.789 25.3609 186.075 26.2115C185.362 27.0622 185.008 28.1943 185.008 29.6078V38.5895C185.008 38.8522 184.915 39.0711 184.728 39.265C184.542 39.4526 184.319 39.5465 184.064 39.5465H181.396C181.135 39.5465 180.918 39.4526 180.731 39.265C180.545 39.0774 180.452 38.8522 180.452 38.5895V22.1085C180.452 21.8458 180.545 21.6269 180.731 21.433C180.918 21.2454 181.141 21.1515 181.396 21.1515H184.064C184.325 21.1515 184.542 21.2454 184.728 21.433C184.915 21.6206 185.008 21.8458 185.008 22.1085V22.9216C185.616 22.3086 186.33 21.802 187.149 21.4017C187.968 21.0014 188.937 20.8013 190.06 20.8013C191.487 20.8013 192.679 21.0264 193.641 21.4705C194.603 21.9209 195.373 22.5213 195.956 23.2719C196.54 24.0224 196.956 24.9043 197.204 25.9051C197.452 26.9058 197.57 27.9628 197.57 29.0699V38.5832L197.558 38.5895Z" fill="white"/>
<path d="M209.071 20.8014C209.797 20.8014 210.442 20.8702 211.02 21.0141C211.591 21.1579 212.093 21.3331 212.528 21.5457C212.962 21.7584 213.329 21.9898 213.633 22.2337C213.937 22.4839 214.179 22.7091 214.371 22.928V15.3974C214.371 15.1409 214.464 14.9158 214.651 14.7219C214.837 14.5342 215.06 14.4404 215.315 14.4404H217.983C218.244 14.4404 218.461 14.5342 218.648 14.7219C218.834 14.9095 218.927 15.1347 218.927 15.3974V38.5959C218.927 38.8586 218.834 39.0775 218.648 39.2714C218.461 39.459 218.238 39.5528 217.983 39.5528H215.315C215.054 39.5528 214.837 39.459 214.651 39.2714C214.464 39.0837 214.371 38.8586 214.371 38.5959V37.7828C214.185 37.9954 213.937 38.2269 213.633 38.4708C213.329 38.721 212.962 38.9461 212.528 39.1651C212.093 39.3777 211.591 39.5528 211.02 39.6967C210.442 39.8343 209.797 39.9094 209.071 39.9094C207.898 39.9094 206.843 39.6779 205.893 39.2214C204.943 38.7585 204.137 38.1455 203.472 37.3825C202.808 36.6194 202.281 35.7313 201.896 34.7305C201.511 33.7298 201.294 32.6852 201.244 31.6032C201.219 31.2529 201.207 30.8401 201.207 30.3648C201.207 29.8894 201.219 29.4829 201.244 29.1263C201.288 28.038 201.505 26.9998 201.896 25.999C202.281 24.9983 202.808 24.1101 203.472 23.347C204.137 22.584 204.95 21.9648 205.893 21.5082C206.843 21.0453 207.898 20.8202 209.071 20.8202V20.8014ZM205.806 29.3578C205.738 30.0208 205.738 30.6775 205.806 31.3405C205.949 32.8729 206.414 33.9737 207.209 34.6429C208.003 35.3185 208.978 35.6499 210.12 35.6499C211.262 35.6499 212.23 35.3059 213.018 34.6242C213.8 33.9424 214.253 32.9604 214.365 31.6908C214.415 31.3405 214.433 30.8902 214.433 30.346C214.433 29.8018 214.408 29.3578 214.365 29.0013C214.247 27.7753 213.8 26.8059 213.018 26.1054C212.236 25.3986 211.268 25.0421 210.12 25.0421C208.971 25.0421 208.003 25.3798 207.209 26.0491C206.414 26.7183 205.943 27.8254 205.806 29.3515V29.3578Z" fill="white"/>
<path d="M227.387 14.434C227.641 14.434 227.864 14.5278 228.051 14.7154C228.237 14.9031 228.33 15.1282 228.33 15.3909V18.1492C228.33 18.4057 228.237 18.6308 228.051 18.8185C227.864 19.0061 227.641 19.0999 227.387 19.0999H224.37C224.109 19.0999 223.892 19.0061 223.706 18.8185C223.52 18.6308 223.427 18.4057 223.427 18.1492V15.3909C223.427 15.1345 223.52 14.9093 223.706 14.7154C223.892 14.5278 224.116 14.434 224.37 14.434H227.387Z" fill="white"/>
<path d="M228.156 38.5895C228.156 38.8521 228.063 39.0711 227.877 39.265C227.691 39.4526 227.467 39.5464 227.213 39.5464H224.544C224.283 39.5464 224.066 39.4526 223.88 39.265C223.694 39.0773 223.601 38.8521 223.601 38.5895V22.1084C223.601 21.8458 223.694 21.6268 223.88 21.4329C224.066 21.2453 224.29 21.1515 224.544 21.1515H227.213C227.474 21.1515 227.691 21.2453 227.877 21.4329C228.063 21.6206 228.156 21.8458 228.156 22.1084V38.5895Z" fill="white"/>
<path d="M249.954 38.5895C249.954 38.8522 249.861 39.0711 249.675 39.265C249.489 39.4526 249.265 39.5465 249.011 39.5465H246.342C246.081 39.5465 245.864 39.4526 245.678 39.265C245.491 39.0774 245.398 38.8522 245.398 38.5895V29.6078C245.398 28.1943 245.069 27.0622 244.418 26.2115C243.76 25.3609 242.754 24.9356 241.401 24.9356C240.16 24.9356 239.186 25.3609 238.472 26.2115C237.758 27.0622 237.404 28.1943 237.404 29.6078V38.5895C237.404 38.8522 237.311 39.0711 237.125 39.265C236.939 39.4526 236.715 39.5465 236.461 39.5465H233.792C233.531 39.5465 233.314 39.4526 233.128 39.265C232.942 39.0774 232.849 38.8522 232.849 38.5895V22.1085C232.849 21.8458 232.942 21.6269 233.128 21.433C233.314 21.2454 233.538 21.1515 233.792 21.1515H236.461C236.722 21.1515 236.939 21.2454 237.125 21.433C237.311 21.6206 237.404 21.8458 237.404 22.1085V22.9216C238.013 22.3086 238.726 21.802 239.546 21.4017C240.365 21.0014 241.333 20.8013 242.456 20.8013C243.884 20.8013 245.076 21.0264 246.038 21.4705C247 21.9209 247.769 22.5213 248.353 23.2719C248.936 24.0224 249.352 24.9043 249.6 25.9051C249.849 26.9058 249.966 27.9628 249.966 29.0699V38.5832L249.954 38.5895Z" fill="white"/>
<path d="M254.44 25.6799C254.534 25.1858 254.751 24.6541 255.092 24.085C255.434 23.5158 255.911 22.9904 256.532 22.4963C257.153 22.0022 257.91 21.5956 258.816 21.2766C259.716 20.9576 260.765 20.8013 261.957 20.8013C263.148 20.8013 264.228 20.9576 265.184 21.2766C266.14 21.5956 266.965 22.0585 267.654 22.6714C268.343 23.2844 268.877 24.0599 269.249 24.9856C269.622 25.9176 269.808 26.9871 269.808 28.188V38.5832C269.808 38.8459 269.715 39.0648 269.529 39.2587C269.343 39.4464 269.119 39.5402 268.865 39.5402H266.196C265.935 39.5402 265.718 39.4464 265.532 39.2587C265.345 39.0711 265.252 38.8459 265.252 38.5832V37.4199C264.762 38.1016 264.055 38.6896 263.13 39.1712C262.205 39.6528 261.032 39.8967 259.604 39.8967C258.599 39.8967 257.699 39.7591 256.904 39.4902C256.11 39.2212 255.44 38.8397 254.906 38.3393C254.366 37.8452 253.95 37.2573 253.658 36.588C253.367 35.9125 253.218 35.1807 253.218 34.3801C253.218 32.7539 253.789 31.478 254.937 30.5585C256.085 29.6391 257.612 29.0136 259.536 28.6884L265.252 27.7001C265.252 26.7307 264.936 26.0489 264.303 25.6486C263.67 25.2483 262.888 25.0482 261.95 25.0482C261.367 25.0482 260.908 25.1295 260.585 25.2921C260.256 25.461 259.94 25.6862 259.635 25.9676C259.424 26.1553 259.232 26.2866 259.058 26.3554C258.884 26.4242 258.686 26.4617 258.481 26.4617H255.216C254.98 26.4617 254.782 26.3929 254.62 26.2491C254.459 26.1115 254.397 25.9176 254.447 25.6862L254.44 25.6799ZM260.3 35.6498C261.094 35.6498 261.802 35.5372 262.422 35.3121C263.043 35.0869 263.564 34.7867 263.986 34.4114C264.408 34.0361 264.725 33.6108 264.936 33.1354C265.147 32.6601 265.252 32.1785 265.252 31.6844V31.3341L260.479 32.1847C259.517 32.3474 258.829 32.5913 258.413 32.9103C257.991 33.2293 257.78 33.6608 257.78 34.1987C257.78 34.6928 258.028 35.0619 258.531 35.2995C259.033 35.531 259.623 35.6498 260.306 35.6498H260.3Z" fill="white"/>
<path d="M315.142 0C301.083 0 289.642 11.4361 289.642 25.5C289.642 39.5639 301.083 51 315.142 51C329.2 51 340.642 39.5639 340.642 25.5C340.642 11.4361 329.205 0 315.142 0ZM299.267 33.9962C297.871 33.1903 297.394 31.4082 298.2 30.012L304.392 19.6032C305.198 18.207 306.98 17.7302 308.376 18.5362C309.773 19.3421 310.249 21.1242 309.443 22.5204L303.251 32.9292C302.446 34.3254 300.663 34.8021 299.267 33.9962ZM313.337 32.6114C312.531 34.0076 310.749 34.4843 309.353 33.6784C307.956 32.8725 307.48 31.0904 308.286 29.6942C308.286 29.6942 315.079 18.3091 316.209 16.4873C316.294 16.3511 316.742 15.6984 316.753 15.6814C318.672 13.4339 321.209 13.099 323.53 15.1365C324.29 15.8914 324.716 16.5043 324.716 16.5043C324.716 16.5043 324.71 16.5043 324.705 16.4987C324.671 16.476 324.631 16.4533 324.597 16.4306C324.574 16.4192 324.552 16.4022 324.523 16.3908C324.489 16.3738 324.449 16.3568 324.415 16.3454C324.387 16.3341 324.353 16.317 324.325 16.3114C324.313 16.3114 324.296 16.3 324.285 16.2943C324.273 16.2943 324.256 16.2943 324.245 16.2887C324.16 16.266 324.075 16.2489 324.001 16.2433C324.001 16.2433 324.001 16.2433 323.995 16.2433C323.995 16.2433 323.984 16.2433 323.978 16.2433C323.814 16.2262 323.7 16.2433 323.7 16.2433C323.155 16.2887 322.571 16.6122 322.111 17.35L313.331 32.6227L313.337 32.6114ZM331.862 33.9962C330.465 34.8021 328.683 34.3254 327.877 32.9292L326.686 30.869L326.674 30.8804C325.653 29.0869 323.49 25.3127 321.731 22.2479L323.661 18.888C324.222 17.9743 324.994 17.6962 325.624 17.7984C327.145 20.2558 329.835 24.66 329.835 24.66C330.443 25.693 331.05 26.7486 331.629 27.7702L332.929 30.0177C333.735 31.4139 333.258 33.196 331.862 34.0019V33.9962Z" fill="white"/>
</svg>
