<svg width="127" height="45" viewBox="0 0 127 45" fill="none" xmlns="http://www.w3.org/2000/svg">
<g clip-path="url(#clip0_677_2375)">
<path d="M104.576 0C92.2131 0 82.1514 10.068 82.1514 22.4495C82.1514 34.8309 92.2131 44.899 104.576 44.899C116.938 44.899 127 34.8309 127 22.4495C127 10.068 116.943 0 104.576 0ZM90.616 29.9293C89.3883 29.2198 88.969 27.6509 89.6777 26.4217L95.1229 17.2581C95.8316 16.0289 97.3987 15.6092 98.6265 16.3187C99.8543 17.0282 100.274 18.5972 99.5648 19.8263L94.1197 28.99C93.411 30.2191 91.8438 30.6388 90.616 29.9293ZM102.989 28.7102C102.28 29.9393 100.713 30.359 99.485 29.6495C98.2572 28.94 97.838 27.3711 98.5467 26.1419C98.5467 26.1419 104.521 16.1189 105.514 14.515C105.589 14.3951 105.983 13.8205 105.993 13.8055C107.68 11.8268 109.911 11.532 111.952 13.3258C112.621 13.9903 112.995 14.53 112.995 14.53C112.995 14.53 112.991 14.53 112.986 14.525C112.956 14.505 112.921 14.485 112.891 14.465C112.871 14.455 112.851 14.44 112.826 14.43C112.796 14.415 112.761 14.4001 112.731 14.3901C112.706 14.3801 112.676 14.3651 112.651 14.3601C112.641 14.3601 112.626 14.3501 112.616 14.3451C112.606 14.3451 112.591 14.3451 112.581 14.3401C112.506 14.3201 112.432 14.3051 112.367 14.3001C112.367 14.3001 112.367 14.3001 112.362 14.3001C112.362 14.3001 112.352 14.3001 112.347 14.3001C112.202 14.2851 112.102 14.3001 112.102 14.3001C111.623 14.3401 111.109 14.6249 110.705 15.2744L102.984 28.7202L102.989 28.7102ZM119.279 29.9293C118.051 30.6388 116.484 30.2191 115.775 28.99L114.727 27.1762L114.717 27.1862C113.819 25.6073 111.917 22.2846 110.37 19.5865L112.067 16.6285C112.561 15.8241 113.24 15.5792 113.794 15.6692C115.132 17.8327 117.497 21.71 117.497 21.71C118.031 22.6194 118.565 23.5487 119.074 24.4481L120.217 26.4267C120.926 27.6559 120.507 29.2248 119.279 29.9343V29.9293Z" fill="#00358E"/>
<path d="M5.57989 14.4101L9.20333 7.38991C9.27321 7.24501 9.37302 7.1151 9.4978 6.99518C9.62257 6.87527 9.78727 6.81531 9.9919 6.81531H10.6757C10.8054 6.81531 10.9202 6.86527 11.0151 6.96021C11.1099 7.05514 11.1598 7.17006 11.1598 7.29997V18.902C11.1598 19.0369 11.1099 19.1468 11.0151 19.2417C10.9202 19.3367 10.8054 19.3866 10.6757 19.3866H9.94199C9.81223 19.3866 9.69744 19.3367 9.60261 19.2417C9.50778 19.1468 9.45787 19.0319 9.45787 18.902V10.3878L6.65794 15.7941C6.56311 15.974 6.4583 16.1139 6.35349 16.2138C6.24369 16.3187 6.10395 16.3687 5.92427 16.3687H5.24051C5.06083 16.3687 4.9161 16.3187 4.81129 16.2138C4.70149 16.1139 4.60167 15.969 4.50684 15.7941L1.70691 10.3878V18.902C1.70691 19.0369 1.657 19.1468 1.56217 19.2417C1.46734 19.3367 1.35255 19.3866 1.22279 19.3866H0.484123C0.354358 19.3866 0.239566 19.3367 0.144738 19.2417C0.0499096 19.1468 0 19.0319 0 18.902V7.29997C0 7.17006 0.0449186 7.05514 0.144738 6.96021C0.239566 6.86527 0.354358 6.81531 0.484123 6.81531H1.16788C1.37251 6.81531 1.53722 6.87527 1.66199 6.99518C1.78676 7.1151 1.88658 7.24501 1.95646 7.38991L5.57989 14.4101Z" fill="#00358E"/>
<path d="M13.5253 13.8204C13.5702 13.2708 13.705 12.7562 13.9196 12.2765C14.1342 11.7968 14.4187 11.3771 14.763 11.0174C15.1074 10.6576 15.5267 10.3778 16.0108 10.173C16.4949 9.9681 17.0339 9.86816 17.6328 9.86816C18.2767 9.86816 18.8556 9.97309 19.3647 10.1829C19.8738 10.3928 20.308 10.6976 20.6673 11.0923C21.0267 11.487 21.3012 11.9667 21.4909 12.5313C21.6805 13.0909 21.7803 13.7205 21.7803 14.415V14.8997C21.7803 15.0346 21.7304 15.1445 21.6356 15.2395C21.5408 15.3344 21.426 15.3844 21.2962 15.3844H15.1274V15.4893C15.1523 16.3037 15.4019 16.9283 15.871 17.368C16.3452 17.8027 16.9341 18.0225 17.6378 18.0225C18.2966 18.0225 18.7907 17.9326 19.1201 17.7427C19.4496 17.5579 19.7141 17.353 19.9187 17.1232C20.0135 17.0282 20.0984 16.9633 20.1682 16.9283C20.2381 16.8933 20.3479 16.8733 20.4927 16.8733H21.0317C21.1614 16.8733 21.2812 16.9233 21.391 17.0182C21.5008 17.1132 21.5408 17.2281 21.5158 17.358C21.4809 17.5728 21.3761 17.8077 21.2114 18.0675C21.0417 18.3273 20.8021 18.5672 20.4827 18.787C20.1633 19.0069 19.774 19.1917 19.2998 19.3416C18.8257 19.4915 18.2767 19.5665 17.6428 19.5665C17.0439 19.5665 16.5049 19.4615 16.0258 19.2517C15.5466 19.0418 15.1324 18.752 14.778 18.3873C14.4237 18.0225 14.1392 17.5928 13.9246 17.0932C13.7099 16.5985 13.5802 16.0539 13.5303 15.4693C13.4704 14.9197 13.4704 14.3701 13.5303 13.8154L13.5253 13.8204ZM15.1224 13.8754H20.1633V13.8204C20.1633 13.0909 19.9337 12.5063 19.4745 12.0716C19.0153 11.6369 18.4014 11.4171 17.6378 11.4171C17.2935 11.4171 16.969 11.4721 16.6696 11.587C16.3701 11.7019 16.1056 11.8618 15.881 12.0716C15.6514 12.2815 15.4718 12.5363 15.342 12.8361C15.2072 13.1359 15.1374 13.4657 15.1274 13.8254V13.8804L15.1224 13.8754Z" fill="#00358E"/>
<path d="M28.5928 10.048C28.7225 10.048 28.8373 10.0979 28.9321 10.1929C29.027 10.2878 29.0769 10.4027 29.0769 10.5326V11.1072C29.0769 11.2421 29.027 11.3521 28.9321 11.447C28.8373 11.5419 28.7225 11.5919 28.5928 11.5919H27.5546C26.1771 11.5919 25.4934 12.2814 25.4934 13.6555V18.8969C25.4934 19.0318 25.4485 19.1417 25.3486 19.2366C25.2538 19.3316 25.139 19.3815 25.0092 19.3815H24.3455C24.2157 19.3815 24.1009 19.3316 24.0061 19.2366C23.9112 19.1417 23.8613 19.0268 23.8613 18.8969V10.5276C23.8613 10.3927 23.9062 10.2828 24.0061 10.1879C24.1009 10.0929 24.2157 10.043 24.3455 10.043H25.0092C25.139 10.043 25.2538 10.0929 25.3486 10.1879C25.4435 10.2828 25.4934 10.3977 25.4934 10.5276V11.0823C25.7329 10.7225 26.0174 10.4577 26.3568 10.2928C26.6912 10.1229 27.1304 10.043 27.6644 10.043H28.5977L28.5928 10.048Z" fill="#00358E"/>
<path d="M31.5533 15.3444C31.5982 15.824 31.708 16.2288 31.8677 16.5685C32.0274 16.9033 32.227 17.1781 32.4616 17.393C32.6962 17.6078 32.9557 17.7677 33.2402 17.8676C33.5247 17.9676 33.8192 18.0175 34.1186 18.0175C34.6926 18.0175 35.1817 17.9126 35.591 17.6927C36.0002 17.4729 36.3146 17.1181 36.5392 16.6135C36.6241 16.4236 36.7089 16.2937 36.7988 16.2288C36.8886 16.1638 36.9984 16.1288 37.1282 16.1288H37.6672C37.797 16.1288 37.9167 16.1738 38.0166 16.2737C38.1164 16.3737 38.1613 16.4836 38.1513 16.6135C38.1413 16.9033 38.0465 17.2181 37.8718 17.5578C37.6971 17.8976 37.4426 18.2174 37.0982 18.5122C36.7539 18.807 36.3396 19.0568 35.8455 19.2567C35.3464 19.4615 34.7724 19.5615 34.1136 19.5615C33.4548 19.5615 32.8709 19.4565 32.3668 19.2367C31.8577 19.0218 31.4285 18.727 31.0741 18.3573C30.7198 17.9875 30.4453 17.5478 30.2506 17.0432C30.056 16.5435 29.9412 16.0039 29.9212 15.4293C29.9112 15.2394 29.9013 14.9996 29.8963 14.7198C29.8913 14.44 29.8963 14.1952 29.9212 13.9903C29.9661 13.4157 30.0909 12.8761 30.2906 12.3714C30.4852 11.8718 30.7597 11.4321 31.1041 11.0623C31.4485 10.6926 31.8777 10.3978 32.3768 10.1829C32.8809 9.96808 33.4598 9.85815 34.1186 9.85815C34.7774 9.85815 35.3514 9.95809 35.8505 10.1629C36.3446 10.3678 36.7638 10.6126 37.1032 10.9074C37.4426 11.2022 37.7021 11.517 37.8768 11.8618C38.0515 12.2015 38.1413 12.5163 38.1563 12.8011C38.1663 12.936 38.1214 13.046 38.0216 13.1409C37.9217 13.2358 37.802 13.2858 37.6722 13.2858H37.1332C37.0034 13.2858 36.8886 13.2508 36.8038 13.1859C36.7139 13.1209 36.6291 12.991 36.5442 12.8011C36.3146 12.3015 36.0002 11.9417 35.5959 11.7219C35.1917 11.507 34.6976 11.3971 34.1236 11.3971C33.8242 11.3971 33.5297 11.4471 33.2352 11.547C32.9408 11.6519 32.6812 11.8068 32.4467 12.0217C32.2121 12.2365 32.0174 12.5113 31.8577 12.8461C31.698 13.1809 31.5982 13.5906 31.5633 14.0702C31.5283 14.5149 31.5283 14.9297 31.5633 15.3244L31.5533 15.3444Z" fill="#00358E"/>
<path d="M39.5537 17.0332C39.5537 16.5535 39.6485 16.1338 39.8382 15.7741C40.0279 15.4143 40.2924 15.1095 40.6268 14.8597C40.9612 14.6099 41.3554 14.405 41.7996 14.2501C42.2488 14.0952 42.723 13.9753 43.2271 13.8904L45.7575 13.4757V13.2408C45.7575 12.6312 45.5578 12.1716 45.1586 11.8668C44.7593 11.562 44.2602 11.4071 43.6613 11.4071C43.1372 11.4071 42.7379 11.502 42.4684 11.6919C42.1989 11.8868 41.9693 12.1116 41.7797 12.3764C41.7098 12.4714 41.6299 12.5413 41.5451 12.5713C41.4603 12.6063 41.3505 12.6263 41.2057 12.6263H40.6667C40.5369 12.6263 40.4171 12.5813 40.3173 12.4814C40.2175 12.3814 40.1726 12.2715 40.1826 12.1416C40.2075 11.8818 40.3123 11.612 40.497 11.3321C40.6817 11.0573 40.9312 10.8125 41.2506 10.5977C41.5651 10.3828 41.9344 10.2079 42.3437 10.068C42.7579 9.92811 43.1971 9.86316 43.6613 9.86316C44.2003 9.86316 44.6994 9.93811 45.1586 10.098C45.6177 10.2529 46.012 10.4827 46.3414 10.7825C46.6708 11.0823 46.9254 11.4521 47.115 11.8968C47.3047 12.3414 47.3945 12.8461 47.3945 13.4207V18.8969C47.3945 19.0318 47.3446 19.1418 47.2498 19.2367C47.1549 19.3316 47.0402 19.3816 46.9104 19.3816H46.2466C46.1168 19.3816 46.002 19.3316 45.9072 19.2367C45.8124 19.1418 45.7625 19.0268 45.7625 18.8969V18.1624C45.6527 18.3923 45.488 18.5921 45.2584 18.767C45.0288 18.9419 44.7693 19.0868 44.4798 19.2067C44.1853 19.3266 43.8809 19.4166 43.5664 19.4765C43.252 19.5365 42.9526 19.5665 42.6781 19.5665C42.2139 19.5665 41.7847 19.5015 41.3954 19.3716C41.0061 19.2417 40.6767 19.0618 40.4072 18.842C40.1377 18.6221 39.928 18.3573 39.7783 18.0425C39.6286 17.7327 39.5537 17.398 39.5537 17.0382V17.0332ZM42.8527 18.0175C43.282 18.0175 43.6762 17.9526 44.0356 17.8227C44.3949 17.6928 44.6994 17.5079 44.9589 17.273C45.2185 17.0382 45.4131 16.7634 45.5528 16.4386C45.6926 16.1138 45.7575 15.7541 45.7575 15.3594V14.9097L43.6413 15.2494C42.8877 15.3694 42.2888 15.5592 41.8496 15.824C41.4054 16.0889 41.1858 16.4286 41.1858 16.8483C41.1858 16.9832 41.2157 17.1132 41.2756 17.2431C41.3355 17.373 41.4303 17.5029 41.5651 17.6178C41.6998 17.7327 41.8645 17.8327 42.0741 17.9076C42.2838 17.9776 42.5433 18.0125 42.8527 18.0125V18.0175Z" fill="#00358E"/>
<path d="M58.2049 18.9019C58.2049 19.0368 58.155 19.1468 58.0602 19.2417C57.9654 19.3366 57.8506 19.3866 57.7208 19.3866H57.057C56.9272 19.3866 56.8124 19.3366 56.7176 19.2417C56.6228 19.1468 56.5729 19.0318 56.5729 18.9019V14.1602C56.5729 13.2408 56.3533 12.5513 55.9091 12.0966C55.4649 11.6419 54.851 11.4121 54.0624 11.4121C53.2738 11.4121 52.6999 11.6419 52.2407 12.0966C51.7816 12.5513 51.552 13.2408 51.552 14.1602V18.9019C51.552 19.0368 51.507 19.1468 51.4072 19.2417C51.3124 19.3366 51.1976 19.3866 51.0678 19.3866H50.404C50.2743 19.3866 50.1595 19.3366 50.0647 19.2417C49.9698 19.1468 49.9199 19.0318 49.9199 18.9019V10.5327C49.9199 10.3978 49.9648 10.2879 50.0647 10.1929C50.1595 10.098 50.2743 10.048 50.404 10.048H51.0678C51.1976 10.048 51.3124 10.098 51.4072 10.1929C51.5021 10.2879 51.552 10.4028 51.552 10.5327V11.0873C51.7816 10.7875 52.1159 10.5127 52.5651 10.2529C53.0143 9.99308 53.6033 9.86816 54.3319 9.86816C54.8959 9.86816 55.415 9.9581 55.8941 10.143C56.3732 10.3278 56.7825 10.5927 57.1219 10.9324C57.4613 11.2722 57.7308 11.6969 57.9204 12.1966C58.1101 12.7012 58.2099 13.2608 58.2099 13.8854V18.8969L58.2049 18.9019Z" fill="#00358E"/>
<path d="M63.011 16.2437C63.011 16.4736 63.031 16.6834 63.0759 16.8833C63.1158 17.0782 63.1907 17.253 63.3005 17.398C63.4103 17.5428 63.56 17.6528 63.7597 17.7277C63.9593 17.8077 64.2089 17.8476 64.5233 17.8476H65.4716C65.6013 17.8476 65.7161 17.8976 65.811 17.9925C65.9058 18.0875 65.9557 18.2024 65.9557 18.3323V18.9069C65.9557 19.0418 65.9058 19.1517 65.811 19.2467C65.7161 19.3416 65.6013 19.3916 65.4716 19.3916H64.3436C63.3055 19.3916 62.5519 19.1218 62.0827 18.5821C61.6186 18.0425 61.384 17.263 61.384 16.2487V11.597H60.0564C59.9266 11.597 59.8118 11.547 59.717 11.4521C59.6222 11.3571 59.5723 11.2422 59.5723 11.1123V10.5377C59.5723 10.4028 59.6172 10.2929 59.717 10.1979C59.8118 10.103 59.9266 10.053 60.0564 10.053H61.384V7.12505C61.384 6.99514 61.4289 6.88022 61.5287 6.78528C61.6235 6.69035 61.7383 6.64038 61.8681 6.64038H62.5319C62.6617 6.64038 62.7765 6.69035 62.8713 6.78528C62.9661 6.88022 63.016 6.99514 63.016 7.12505V10.053H65.2919C65.4217 10.053 65.5365 10.103 65.6313 10.1979C65.7261 10.2929 65.776 10.4078 65.776 10.5377V11.1123C65.776 11.2472 65.7311 11.3571 65.6313 11.4521C65.5365 11.547 65.4217 11.597 65.2919 11.597H63.016V16.2487L63.011 16.2437Z" fill="#00358E"/>
<path d="M69.4689 8.14433C69.4689 8.27924 69.419 8.38916 69.3242 8.4841C69.2294 8.57903 69.1146 8.629 68.9848 8.629H67.9617C67.8319 8.629 67.7171 8.57903 67.6223 8.4841C67.5275 8.38916 67.4775 8.27424 67.4775 8.14433V7.12004C67.4775 6.99013 67.5225 6.87521 67.6223 6.78028C67.7171 6.68534 67.8319 6.63538 67.9617 6.63538H68.9848C69.1146 6.63538 69.2294 6.68534 69.3242 6.78028C69.419 6.87521 69.4689 6.99013 69.4689 7.12004V8.14433ZM69.2893 18.9019C69.2893 19.0368 69.2443 19.1467 69.1445 19.2417C69.0497 19.3366 68.9349 19.3866 68.8051 19.3866H68.1413C68.0116 19.3866 67.8968 19.3366 67.802 19.2417C67.7071 19.1467 67.6572 19.0318 67.6572 18.9019V10.5327C67.6572 10.3978 67.7021 10.2879 67.802 10.1929C67.8968 10.098 68.0116 10.048 68.1413 10.048H68.8051C68.9349 10.048 69.0497 10.098 69.1445 10.1929C69.2393 10.2879 69.2893 10.4028 69.2893 10.5327V18.9019Z" fill="#00358E"/>
<path d="M73.5217 18.9019C73.5217 19.0368 73.4768 19.1467 73.377 19.2417C73.2821 19.3366 73.1673 19.3866 73.0376 19.3866H72.3738C72.244 19.3866 72.1292 19.3366 72.0344 19.2417C71.9396 19.1467 71.8896 19.0318 71.8896 18.9019V7.12004C71.8896 6.99013 71.9346 6.87521 72.0344 6.78028C72.1292 6.68534 72.244 6.63538 72.3738 6.63538H73.0376C73.1673 6.63538 73.2821 6.68534 73.377 6.78028C73.4718 6.87521 73.5217 6.99013 73.5217 7.12004V18.9019Z" fill="#00358E"/>
<path d="M21.3662 24.4581C21.5559 24.4581 21.7006 24.5081 21.7955 24.613C21.8903 24.713 21.9751 24.8678 22.045 25.0727L26.4421 36.4199C26.452 36.4548 26.462 36.4998 26.462 36.5448C26.462 36.6797 26.4121 36.7896 26.3173 36.8845C26.2225 36.9795 26.1077 37.0294 25.9779 37.0294H24.6852C24.4457 37.0294 24.276 36.9795 24.1811 36.8795C24.0863 36.7746 24.0214 36.6797 23.9865 36.5848L23.2129 34.5911H17.5432L16.7696 36.5848C16.7346 36.6797 16.6698 36.7796 16.5699 36.8795C16.4751 36.9795 16.3054 37.0294 16.0658 37.0294H14.7732C14.6384 37.0294 14.5286 36.9795 14.4338 36.8845C14.339 36.7896 14.2891 36.6747 14.2891 36.5448C14.2891 36.4998 14.2941 36.4548 14.309 36.4199L18.7011 25.0727C18.7709 24.8678 18.8558 24.7179 18.9506 24.613C19.0454 24.5081 19.1902 24.4581 19.3798 24.4581H21.3513H21.3662ZM22.3545 32.3427L20.383 27.2262L18.4116 32.3427H22.3594H22.3545Z" fill="#00358E"/>
<path d="M36.594 36.5447C36.594 36.6797 36.5491 36.7896 36.4493 36.8845C36.3544 36.9794 36.2396 37.0294 36.1099 37.0294H34.7473C34.6176 37.0294 34.5028 36.9794 34.4079 36.8845C34.3131 36.7896 34.2632 36.6747 34.2632 36.5447V31.9829C34.2632 31.2634 34.0985 30.6888 33.7591 30.2591C33.4197 29.8294 32.9107 29.6145 32.2169 29.6145C31.5831 29.6145 31.084 29.8294 30.7196 30.2591C30.3553 30.6888 30.1706 31.2634 30.1706 31.9829V36.5447C30.1706 36.6797 30.1207 36.7896 30.0259 36.8845C29.9311 36.9794 29.8163 37.0294 29.6865 37.0294H28.324C28.1892 37.0294 28.0794 36.9794 27.9846 36.8845C27.8898 36.7896 27.8398 36.6747 27.8398 36.5447V28.1755C27.8398 28.0406 27.8848 27.9307 27.9846 27.8358C28.0794 27.7408 28.1942 27.6909 28.324 27.6909H29.6865C29.8163 27.6909 29.9311 27.7408 30.0259 27.8358C30.1207 27.9307 30.1706 28.0456 30.1706 28.1755V28.5902C30.4801 28.2805 30.8444 28.0206 31.2636 27.8158C31.6829 27.6109 32.177 27.511 32.751 27.511C33.4796 27.511 34.0885 27.6259 34.5776 27.8508C35.0668 28.0806 35.461 28.3854 35.7605 28.7651C36.06 29.1499 36.2696 29.5945 36.3993 30.1042C36.5291 30.6138 36.589 31.1485 36.589 31.7131V36.5447H36.594Z" fill="#00358E"/>
<path d="M42.4777 27.511C42.847 27.511 43.1814 27.5459 43.4709 27.6159C43.7654 27.6858 44.0199 27.7758 44.2445 27.8857C44.4641 27.9906 44.6537 28.1105 44.8085 28.2355C44.9632 28.3604 45.088 28.4803 45.1828 28.5852V24.7579C45.1828 24.6279 45.2327 24.513 45.3275 24.4181C45.4224 24.3232 45.5371 24.2732 45.6669 24.2732H47.0294C47.1592 24.2732 47.274 24.3232 47.3688 24.4181C47.4637 24.513 47.5136 24.6279 47.5136 24.7579V36.5397C47.5136 36.6746 47.4637 36.7846 47.3688 36.8795C47.274 36.9744 47.1592 37.0244 47.0294 37.0244H45.6669C45.5371 37.0244 45.4224 36.9744 45.3275 36.8795C45.2327 36.7846 45.1828 36.6696 45.1828 36.5397V36.125C45.088 36.2349 44.9632 36.3499 44.8085 36.4748C44.6537 36.5997 44.4641 36.7196 44.2445 36.8245C44.0249 36.9295 43.7654 37.0194 43.4709 37.0943C43.1764 37.1643 42.847 37.1993 42.4777 37.1993C41.8788 37.1993 41.3397 37.0843 40.8556 36.8495C40.3715 36.6147 39.9572 36.3049 39.6179 35.9152C39.2785 35.5254 39.009 35.0757 38.8093 34.5661C38.6097 34.0564 38.4999 33.5268 38.4799 32.9772C38.4699 32.7973 38.46 32.5874 38.46 32.3476C38.46 32.1078 38.465 31.8979 38.4799 31.7181C38.5049 31.1684 38.6147 30.6388 38.8093 30.1291C39.004 29.6195 39.2735 29.1698 39.6179 28.7801C39.9622 28.3903 40.3715 28.0806 40.8556 27.8457C41.3397 27.6109 41.8788 27.496 42.4777 27.496V27.511ZM40.8107 31.858C40.7758 32.1927 40.7758 32.5275 40.8107 32.8623C40.8806 33.6417 41.1201 34.2013 41.5294 34.5411C41.9337 34.8809 42.4328 35.0557 43.0167 35.0557C43.6007 35.0557 44.0948 34.8809 44.499 34.5361C44.8983 34.1913 45.1279 33.6917 45.1878 33.0471C45.2127 32.8673 45.2227 32.6424 45.2227 32.3626C45.2227 32.0828 45.2127 31.858 45.1878 31.6781C45.1279 31.0535 44.8983 30.5638 44.499 30.2041C44.0998 29.8443 43.6056 29.6645 43.0167 29.6645C42.4278 29.6645 41.9337 29.8344 41.5294 30.1791C41.1251 30.5189 40.8856 31.0785 40.8107 31.858Z" fill="#00358E"/>
<path d="M51.8408 24.2782C51.9706 24.2782 52.0853 24.3282 52.1802 24.4231C52.275 24.518 52.3249 24.633 52.3249 24.7629V26.1619C52.3249 26.2918 52.28 26.4067 52.1802 26.5017C52.0853 26.5966 51.9706 26.6466 51.8408 26.6466H50.2986C50.1688 26.6466 50.054 26.6016 49.9592 26.5017C49.8644 26.4067 49.8145 26.2918 49.8145 26.1619V24.7629C49.8145 24.633 49.8594 24.518 49.9592 24.4231C50.054 24.3282 50.1688 24.2782 50.2986 24.2782H51.8408Z" fill="#00358E"/>
<path d="M52.2351 36.5448C52.2351 36.6797 52.1852 36.7896 52.0903 36.8846C51.9955 36.9795 51.8807 37.0295 51.751 37.0295H50.3884C50.2537 37.0295 50.1439 36.9795 50.049 36.8846C49.9542 36.7896 49.9043 36.6747 49.9043 36.5448V28.1756C49.9043 28.0407 49.9492 27.9308 50.049 27.8358C50.1439 27.7409 50.2587 27.6909 50.3884 27.6909H51.751C51.8807 27.6909 51.9955 27.7409 52.0903 27.8358C52.1852 27.9308 52.2351 28.0457 52.2351 28.1756V36.5448Z" fill="#00358E"/>
<path d="M63.3704 36.5447C63.3704 36.6797 63.3254 36.7896 63.2256 36.8845C63.1308 36.9794 63.016 37.0294 62.8862 37.0294H61.5237C61.3939 37.0294 61.2791 36.9794 61.1843 36.8845C61.0895 36.7896 61.0396 36.6747 61.0396 36.5447V31.9829C61.0396 31.2634 60.8749 30.6888 60.5355 30.2591C60.2011 29.8294 59.687 29.6145 58.9933 29.6145C58.3594 29.6145 57.8603 29.8294 57.496 30.2591C57.1317 30.6888 56.947 31.2634 56.947 31.9829V36.5447C56.947 36.6797 56.8971 36.7896 56.8023 36.8845C56.7074 36.9794 56.5926 37.0294 56.4629 37.0294H55.1003C54.9656 37.0294 54.8558 36.9794 54.7609 36.8845C54.6661 36.7896 54.6162 36.6747 54.6162 36.5447V28.1755C54.6162 28.0406 54.6611 27.9307 54.7609 27.8358C54.8558 27.7408 54.9706 27.6909 55.1003 27.6909H56.4629C56.5926 27.6909 56.7074 27.7408 56.8023 27.8358C56.8971 27.9307 56.947 28.0456 56.947 28.1755V28.5902C57.2564 28.2805 57.6208 28.0206 58.04 27.8158C58.4593 27.6109 58.9534 27.511 59.5273 27.511C60.256 27.511 60.8649 27.6259 61.354 27.8508C61.8431 28.0806 62.2374 28.3854 62.5369 28.7651C62.8363 29.1499 63.0459 29.5945 63.1757 30.1042C63.3055 30.6138 63.3654 31.1485 63.3654 31.7131V36.5447H63.3704Z" fill="#00358E"/>
<path d="M65.666 29.9893C65.7109 29.7394 65.8257 29.4696 65.9954 29.1798C66.1701 28.89 66.4146 28.6252 66.729 28.3704C67.0435 28.1206 67.4328 27.9107 67.8969 27.7508C68.3561 27.5859 68.8901 27.506 69.504 27.506C70.1179 27.506 70.6619 27.5859 71.156 27.7508C71.6451 27.9107 72.0694 28.1505 72.4187 28.4603C72.7731 28.7701 73.0426 29.1648 73.2373 29.6345C73.4269 30.1092 73.5217 30.6488 73.5217 31.2584V36.5397C73.5217 36.6746 73.4768 36.7846 73.377 36.8795C73.2822 36.9744 73.1674 37.0244 73.0376 37.0244H71.6751C71.5453 37.0244 71.4305 36.9744 71.3357 36.8795C71.2409 36.7846 71.191 36.6697 71.191 36.5397V35.9501C70.9414 36.2949 70.5771 36.5947 70.1079 36.8395C69.6388 37.0844 69.0349 37.2093 68.3062 37.2093C67.7921 37.2093 67.333 37.1393 66.9237 37.0044C66.5144 36.8695 66.175 36.6746 65.9005 36.4198C65.626 36.17 65.4114 35.8702 65.2617 35.5304C65.112 35.1907 65.0371 34.8159 65.0371 34.4062C65.0371 33.5768 65.3316 32.9322 65.9155 32.4676C66.4995 32.0029 67.283 31.6831 68.2663 31.5182L71.191 31.0136C71.191 30.5239 71.0313 30.1741 70.7068 29.9743C70.3824 29.7694 69.9832 29.6695 69.504 29.6695C69.2046 29.6695 68.97 29.7095 68.8053 29.7944C68.6356 29.8793 68.4759 29.9943 68.3212 30.1342C68.2114 30.2291 68.1165 30.2941 68.0267 30.329C67.9369 30.364 67.837 30.384 67.7322 30.384H66.0652C65.9455 30.384 65.8456 30.349 65.7608 30.2741C65.676 30.2041 65.646 30.1092 65.671 29.9893H65.666ZM68.6606 35.0508C69.0648 35.0508 69.4292 34.9958 69.7436 34.8809C70.058 34.766 70.3275 34.6161 70.5421 34.4212C70.7568 34.2263 70.9215 34.0165 71.0263 33.7766C71.1311 33.5368 71.186 33.292 71.186 33.0422V32.8623L68.7454 33.292C68.2563 33.3769 67.9019 33.4968 67.6873 33.6617C67.4727 33.8266 67.3629 34.0415 67.3629 34.3163C67.3629 34.5661 67.4927 34.751 67.7472 34.8759C68.0067 34.9958 68.3062 35.0558 68.6556 35.0558L68.6606 35.0508Z" fill="#00358E"/>
</g>
<defs>
<clipPath id="clip0_677_2375">
<rect width="127" height="44.899" fill="white"/>
</clipPath>
</defs>
</svg>
